<?xml version="1.0" encoding="utf-8"?>
<!-- Generator: Adobe Illustrator 24.1.3, SVG Export Plug-In . SVG Version: 6.00 Build 0)  -->
<svg version="1.1" id="图层_1" xmlns="http://www.w3.org/2000/svg" xmlns:xlink="http://www.w3.org/1999/xlink" x="0px" y="0px"
	 viewBox="0 0 48 48" style="enable-background:new 0 0 48 48;" xml:space="preserve">
<style type="text/css">
	.st0{fill:#0095F6;}
</style>
<g id="Icons">
	<g id="Icons_8_">
		<g>
			<path class="st0" d="M24,1C11.3,1,1,11.3,1,24s10.3,23,23,23c12.7,0,23-10.3,23-23S36.7,1,24,1z M22.3,30.4h8.3
				c1.6,0,2.8,1.3,2.8,2.8S32.1,36,30.6,36h-8.3c-4.2,0-7.6-3.4-7.6-7.6V14.8c0-1.5,1.3-2.8,2.8-2.8c1.6,0,2.8,1.2,2.8,2.8v3.3h10.3
				c1.6,0,2.8,1.3,2.8,2.8c0,1.5-1.2,2.8-2.8,2.8H20.2v4.7C20.2,29.5,21.1,30.4,22.3,30.4z"/>
		</g>
	</g>
</g>
</svg>
